<!-- Generated by IcoMoon.io -->
<svg version="1.1" xmlns="http://www.w3.org/2000/svg" width="34" height="34" viewBox="0 0 34 34">
<title>envelope</title>
<path d="M34 13.471v15.065c0 1.67-1.366 3.036-3.036 3.036h-27.929c-1.67 0-3.036-1.366-3.036-3.036v-15.065c0.569 0.626 1.214 1.176 1.916 1.651 3.15 2.144 6.337 4.288 9.43 6.546 1.594 1.176 3.567 2.618 5.635 2.618h0.038c2.068 0 4.041-1.442 5.635-2.618 3.093-2.239 6.28-4.402 9.449-6.546 0.683-0.474 1.328-1.025 1.897-1.651zM34 7.893c0 2.125-1.575 4.041-3.244 5.199-2.96 2.049-5.939 4.098-8.879 6.166-1.233 0.854-3.32 2.599-4.857 2.599h-0.038c-1.537 0-3.624-1.746-4.857-2.599-2.941-2.068-5.92-4.117-8.86-6.166-1.347-0.911-3.263-3.055-3.263-4.781 0-1.859 1.006-3.453 3.036-3.453h27.929c1.651 0 3.036 1.366 3.036 3.036z"></path>
</svg>
