<!-- Generated by IcoMoon.io -->
<svg version="1.1" xmlns="http://www.w3.org/2000/svg" width="34" height="34" viewBox="0 0 1088 1088">
<title>instagram</title>
<g id="icomoon-ignore">
</g>
<path fill="#000" d="M1088 431.071v482.071c0 53.429-43.714 97.143-97.143 97.143h-893.714c-53.429 0-97.143-43.714-97.143-97.143v-482.071c18.214 20.036 38.857 37.643 61.321 52.821 100.786 68.607 202.786 137.214 301.75 209.464 51 37.643 114.143 83.786 180.321 83.786h1.214c66.179 0 129.321-46.143 180.321-83.786 98.964-71.643 200.964-140.857 302.357-209.464 21.857-15.179 42.5-32.786 60.714-52.821zM1088 252.571c0 68-50.393 129.321-103.821 166.357-94.714 65.571-190.036 131.143-284.143 197.321-39.464 27.321-106.25 83.179-155.429 83.179h-1.214c-49.179 0-115.964-55.857-155.429-83.179-94.107-66.179-189.429-131.75-283.536-197.321-43.107-29.143-104.429-97.75-104.429-153 0-59.5 32.179-110.5 97.143-110.5h893.714c52.821 0 97.143 43.714 97.143 97.143z"></path>
</svg>
